<?xml version="1.0" standalone="no"?>
<!DOCTYPE svg PUBLIC "-//W3C//DTD SVG 20010904//EN"
 "http://www.w3.org/TR/2001/REC-SVG-20010904/DTD/svg10.dtd">
<svg version="1.0" xmlns="http://www.w3.org/2000/svg"
 width="500.000000pt" height="500.000000pt" viewBox="0 0 500.000000 500.000000"
 preserveAspectRatio="xMidYMid meet">
<metadata>
Created by potrace 1.14, written by Peter Selinger 2001-2017
</metadata>
<g transform="translate(0.000000,500.000000) scale(0.100000,-0.100000)"
fill="#000000" stroke="none">
<path d="M4765 4990 c3 -6 -1 -7 -9 -4 -13 5 -16 -4 -16 -55 0 -34 -1 -64 -2
-68 -2 -5 21 -9 50 -11 l52 -3 0 58 c0 32 -4 63 -8 69 -9 14 -75 28 -67 14z"/>
<path d="M4472 4951 c-3 -8 -6 -33 -6 -55 l-1 -41 48 -3 47 -3 0 60 0 61 -41
-3 c-25 -1 -44 -8 -47 -16z"/>
<path d="M4251 4935 c-13 -7 -32 -10 -43 -7 -15 4 -18 -2 -18 -37 0 -40 1 -41
34 -41 53 0 66 9 66 44 0 46 -10 57 -39 41z"/>
<path d="M3990 4904 c0 -14 -3 -14 -15 -4 -9 7 -15 8 -15 2 0 -11 -18 -11 -37
1 -9 6 -13 1 -13 -17 0 -24 3 -26 50 -26 49 0 50 1 50 30 0 17 -4 30 -10 30
-5 0 -10 -7 -10 -16z"/>
<path d="M3383 4896 c-13 -6 -23 -19 -23 -28 0 -15 9 -18 46 -18 41 0 45 2 42
23 -2 15 -9 21 -22 19 -11 -2 -15 1 -11 7 8 13 -2 12 -32 -3z"/>
<path d="M3640 4901 c0 -5 -3 -16 -6 -25 -5 -13 2 -16 45 -16 48 0 51 1 51 26
0 22 -2 25 -15 14 -10 -9 -15 -9 -15 -1 0 6 -13 11 -30 11 -16 0 -30 -4 -30
-9z"/>
<path d="M3090 4868 c0 -15 9 -18 46 -18 38 0 45 3 42 18 -3 13 -13 17 -46 17
-33 0 -42 -4 -42 -17z"/>
<path d="M2860 4873 c-56 -7 -61 -23 -7 -23 35 0 47 4 47 15 0 8 -1 14 -2 13
-2 0 -19 -3 -38 -5z"/>
<path d="M0 2602 c0 -2051 1 -2254 16 -2248 9 3 18 6 20 6 2 0 4 6 4 14 0 8
16 16 43 19 23 4 54 9 69 13 24 5 27 3 30 -22 3 -27 7 -29 49 -32 46 -3 47 -3
53 33 7 34 9 36 39 31 17 -3 34 0 38 5 4 7 11 6 20 -4 12 -13 16 -13 32 0 16
15 17 14 17 -18 0 -53 11 -63 56 -52 33 7 39 13 42 38 3 29 25 55 46 55 6 0 5
-4 -2 -9 -11 -7 -10 -9 3 -14 9 -4 14 -3 11 2 -3 5 1 14 9 21 12 10 15 10 15
-3 0 -17 50 -19 50 -2 1 24 20 -27 22 -59 l3 -37 45 3 c44 3 45 3 45 39 l0 36
60 -25 c33 -13 72 -28 87 -34 16 -5 26 -14 23 -18 -3 -4 2 -11 11 -14 8 -3 12
-2 9 4 -3 6 -5 10 -3 10 8 0 156 -56 363 -137 127 -50 297 -116 379 -147 l149
-56 266 0 266 0 -110 46 c-60 25 -130 52 -155 61 -25 8 -146 56 -270 105 -124
50 -240 95 -258 100 -33 9 -33 10 -30 64 2 34 7 54 15 54 6 0 15 4 18 10 3 5
0 7 -8 4 -18 -6 -16 31 2 49 11 9 14 9 18 0 3 -7 13 -13 24 -13 13 0 17 5 12
17 -4 11 -3 14 5 9 7 -4 13 -17 13 -29 1 -17 3 -15 9 8 l8 30 1 -30 c1 -26 3
-27 12 -12 5 9 7 22 4 27 -3 6 -1 10 6 10 8 0 10 -13 6 -40 -3 -23 -1 -38 4
-34 5 3 9 -18 9 -46 0 -72 12 -90 59 -90 35 0 39 3 45 31 3 17 6 57 6 88 1 49
2 54 14 38 7 -9 17 -17 21 -17 4 0 1 7 -6 17 -11 13 -11 17 -1 20 6 3 10 8 8
12 -5 8 60 8 84 -1 8 -2 12 -3 8 -1 -14 8 -9 23 7 23 8 0 15 -1 16 -2 0 -2 3
-43 6 -93 3 -49 8 -93 11 -97 9 -9 79 -14 87 -6 9 8 24 221 17 232 -3 5 2 7
11 3 10 -3 17 -2 17 4 0 6 4 8 9 4 5 -3 12 3 14 12 4 17 5 17 6 1 1 -18 15
-22 59 -18 31 2 40 -27 41 -145 2 -79 8 -89 59 -80 47 8 50 14 53 130 1 44 4
88 7 98 5 18 6 18 17 -3 8 -15 15 -19 19 -11 4 6 1 11 -6 11 -23 0 15 20 40
20 13 0 22 -6 22 -15 0 -8 4 -15 9 -15 5 0 7 9 4 20 -3 11 0 20 6 20 6 0 11
-5 11 -11 0 -8 5 -7 16 1 8 8 14 9 13 4 -1 -5 -1 -57 0 -116 1 -118 10 -138
61 -138 40 0 47 18 52 132 3 54 10 103 16 111 7 8 8 18 4 23 -4 5 2 1 14 -9
11 -9 26 -17 32 -17 7 0 20 -8 30 -18 13 -13 25 -16 38 -11 18 7 17 8 -3 8
-12 1 -25 6 -28 12 -12 18 4 23 30 9 23 -12 25 -18 25 -90 0 -110 6 -134 41
-149 51 -22 63 -13 70 54 4 33 7 94 8 135 1 75 12 113 25 91 4 -6 2 -11 -3
-11 -14 0 -14 -27 -1 -35 6 -4 9 -3 8 2 -3 9 5 13 28 13 8 0 12 -5 9 -10 -3
-5 -3 -10 0 -10 10 0 31 24 37 40 3 8 8 -2 12 -22 4 -21 12 -38 18 -38 6 0 7
8 3 18 -4 11 -3 14 4 7 5 -5 13 -59 17 -120 3 -60 11 -116 17 -122 5 -7 26
-13 47 -13 45 0 50 11 50 116 0 63 2 72 20 77 13 3 18 10 14 21 -3 9 -1 16 5
16 6 0 11 -6 11 -12 0 -10 2 -10 9 0 4 7 22 15 40 17 29 4 31 3 19 -12 -11
-14 -10 -16 13 -11 l27 5 1 -76 c2 -42 6 -94 10 -116 7 -39 7 -40 49 -39 23 0
42 0 42 -1 0 -2 -204 -84 -575 -229 l-140 -55 266 0 266 -1 94 36 c52 19 130
48 174 64 88 31 189 69 400 153 77 31 165 64 195 75 l56 19 -3 -31 c-5 -44 9
-60 52 -58 48 2 55 7 55 46 0 49 11 96 21 90 5 -3 9 -1 9 4 0 5 9 12 20 15 11
3 18 2 16 -1 -2 -4 2 -13 10 -20 8 -7 14 -9 14 -5 0 4 15 8 34 9 l34 1 7 -74
7 -73 48 0 c47 0 47 0 54 37 3 21 6 54 7 73 1 19 3 27 6 18 2 -10 11 -19 19
-19 8 -1 20 -2 27 -3 6 -1 18 2 24 7 18 13 16 1 -3 -17 -9 -10 -11 -16 -4 -16
6 0 19 7 28 17 15 15 17 14 22 -8 4 -16 8 -20 14 -11 13 22 26 2 26 -43 0 -48
9 -55 71 -55 36 0 39 2 39 29 0 16 3 36 6 44 5 14 8 13 23 -1 11 -11 13 -20 7
-24 -7 -5 -6 -8 2 -8 8 0 16 9 19 20 3 11 9 20 14 20 5 0 6 -6 3 -13 -5 -14
33 -17 53 -4 6 4 15 3 18 -3 4 -6 1 -9 -6 -8 -6 2 -14 -3 -16 -10 -4 -11 -1
-12 16 -2 l22 11 -2 1737 c0 955 -4 1981 -7 2280 l-5 542 -1188 0 -1188 0 -4
-62 -3 -63 -2 68 c-2 61 -4 67 -19 59 -10 -5 -23 -7 -30 -5 -7 2 -14 -6 -17
-19 -4 -20 -18 -479 -16 -550 0 -16 -4 -28 -10 -28 -7 0 -8 -6 0 -19 13 -26
13 -52 -1 -28 -14 23 -69 24 -69 0 0 -15 -2 -14 -15 3 -13 16 -16 17 -25 4 -7
-11 -10 -11 -10 -2 0 7 -4 10 -10 7 -5 -3 -10 -2 -10 4 0 5 28 11 62 13 l63 3
-30 15 c-44 22 -54 39 -55 93 l0 47 45 0 c45 0 45 0 45 35 l0 35 -68 0 -67 0
-1 40 -1 40 68 0 69 0 0 155 0 155 -1190 0 -1190 0 0 -317 c0 -174 -2 -314 -4
-312 -2 2 -6 51 -9 109 -5 110 -12 144 -29 134 -7 -4 -6 -9 1 -13 6 -4 4 -11
-7 -17 -14 -9 -17 -7 -19 15 -14 210 -22 353 -23 382 0 25 -5 36 -15 36 -13 0
-15 -257 -15 -2255z m1984 1906 c-1 -13 -3 -26 -3 -30 -1 -5 -10 -8 -21 -8
-16 0 -20 7 -20 30 0 25 4 30 23 30 19 0 23 -5 21 -22z m276 15 c0 -5 -3 -18
-6 -30 -6 -21 -12 -23 -85 -23 l-79 0 0 30 0 30 85 0 c47 0 85 -3 85 -7z m538
-35 l3 -38 -79 0 -80 0 -4 40 -4 41 81 -3 80 -3 3 -37z m274 2 l5 -30 -84 0
-83 0 0 30 0 30 79 0 79 0 4 -30z m-382 -163 c0 -61 -3 -67 -31 -60 -16 4 -19
14 -19 59 0 51 1 54 25 54 24 0 25 -3 25 -53z m-1245 -149 c-7 -56 -15 -61
-15 -11 0 35 6 53 17 53 1 0 0 -19 -2 -42z m266 10 c-3 -20 -6 -26 -9 -15 -2
9 -8 17 -13 17 -6 0 -8 -4 -4 -9 3 -5 0 -13 -6 -17 -8 -4 -9 -3 -5 4 4 7 2 12
-4 12 -7 0 -10 7 -6 15 4 11 -2 15 -21 15 -24 0 -25 -1 -10 -12 16 -12 15 -13
-7 -13 -13 0 -22 3 -20 7 2 3 -8 11 -23 16 -23 9 -14 11 53 11 l81 1 -6 -32z
m197 5 c2 -20 0 -21 -12 -11 -8 7 -12 16 -9 21 2 4 0 7 -5 7 -5 0 -14 -10 -21
-22 -6 -13 -10 -16 -8 -8 2 8 -3 21 -12 28 -13 10 -10 12 24 10 35 -1 41 -5
43 -25z m72 12 c0 -18 -16 -20 -24 -2 -3 8 -9 6 -20 -7 -13 -16 -16 -16 -16
-5 0 22 9 29 37 29 14 0 23 -6 23 -15z m152 8 c-12 -2 -20 -9 -17 -14 4 -5 1
-9 -4 -9 -6 0 -11 7 -11 15 0 10 9 15 28 14 23 -2 24 -2 4 -6z m48 -8 c-7 -9
-15 -13 -19 -10 -3 3 1 10 9 15 21 14 24 12 10 -5z m1449 11 c-7 -8 -159 -9
-166 -2 -3 3 33 6 82 6 49 0 86 -2 84 -4z m-2039 -48 c0 -19 -16 -5 -17 14 -2
18 0 20 7 8 5 -8 10 -18 10 -22z m560 28 c0 -3 -4 -8 -10 -11 -5 -3 -10 -1
-10 4 0 6 5 11 10 11 6 0 10 -2 10 -4z m350 -6 c0 -5 -2 -10 -4 -10 -3 0 -8 5
-11 10 -3 6 -1 10 4 10 6 0 11 -4 11 -10z m1083 -57 c-24 -2 -62 -2 -85 0 -24
2 -5 4 42 4 47 0 66 -2 43 -4z m-896 -65 c-2 -13 -4 -3 -4 22 0 25 2 35 4 23
2 -13 2 -33 0 -45z m-270 30 c-3 -8 -6 -5 -6 6 -1 11 2 17 5 13 3 -3 4 -12 1
-19z m2295 -110 c-5 -150 -8 -165 -10 -40 -1 67 1 122 6 122 4 0 6 -37 4 -82z
m231 75 c-7 -2 -19 -2 -25 0 -7 3 -2 5 12 5 14 0 19 -2 13 -5z m-4826 -3380
c-3 -10 -5 -2 -5 17 0 19 2 27 5 18 2 -10 2 -26 0 -35z m2573 -73 c0 -5 -4
-10 -10 -10 -5 0 -10 5 -10 10 0 6 5 10 10 10 6 0 10 -4 10 -10z m-225 -9 c8
-14 -13 -24 -33 -16 -14 5 -14 7 -2 15 19 12 27 12 35 1z m-335 -31 c-8 -5
-19 -10 -25 -10 -5 0 -3 5 5 10 8 5 20 10 25 10 6 0 3 -5 -5 -10z m67 -6 c-3
-3 -12 -4 -19 -1 -8 3 -5 6 6 6 11 1 17 -2 13 -5z m1058 -4 c-3 -5 -1 -10 4
-10 6 0 11 5 11 11 0 5 5 7 11 3 8 -4 3 -11 -12 -20 -13 -7 -27 -10 -31 -8
-10 6 2 34 14 34 5 0 6 -4 3 -10z m65 0 c0 -5 -2 -10 -4 -10 -3 0 -8 5 -11 10
-3 6 -1 10 4 10 6 0 11 -4 11 -10z m164 -4 c-8 -21 24 -28 51 -10 19 13 27 13
44 2 12 -7 21 -16 21 -21 0 -4 -5 -5 -12 -1 -19 12 -59 14 -52 3 3 -6 15 -9
27 -7 15 2 25 -4 32 -20 5 -12 15 -20 20 -18 6 2 11 -4 11 -14 0 -10 -5 -16
-11 -12 -5 3 -5 -1 1 -9 7 -8 13 -33 16 -56 3 -41 2 -43 -32 -57 -19 -7 -51
-18 -70 -24 -19 -5 -43 -13 -53 -17 -17 -7 -18 -1 -11 106 4 63 11 117 17 120
5 4 4 8 -4 11 -11 4 -7 38 5 38 3 0 3 -6 0 -14z m-270 -17 c-3 -5 -10 -7 -15
-3 -5 3 -7 10 -3 15 3 5 10 7 15 3 5 -3 7 -10 3 -15z m-1312 -13 c7 4 8 2 4
-4 -11 -18 -26 -14 -25 6 0 10 3 12 6 4 2 -6 10 -9 15 -6z m62 5 c3 -5 -3 -11
-14 -14 -11 -3 -18 -1 -15 3 3 5 -1 11 -7 13 -7 3 -3 6 9 6 12 1 24 -3 27 -8z
m1830 -24 c-6 -19 -5 -20 8 -10 8 7 18 10 21 6 4 -3 7 -2 7 4 0 6 9 9 20 6 20
-5 29 -33 10 -33 -5 0 -6 -8 -3 -17 4 -11 8 -13 11 -5 2 7 7 10 12 7 4 -3 6 5
3 17 -4 19 -3 20 6 8 16 -22 13 -37 -6 -43 -10 -3 -46 -16 -80 -30 l-63 -25 5
46 c3 26 6 54 7 64 2 10 9 15 21 12 13 -2 17 1 13 12 -3 9 -2 12 5 9 5 -4 7
-16 3 -28z m106 19 c0 -3 -4 -8 -10 -11 -5 -3 -10 -1 -10 4 0 6 5 11 10 11 6
0 10 -2 10 -4z m-695 -16 c3 -5 1 -10 -4 -10 -6 0 -11 5 -11 10 0 6 2 10 4 10
3 0 8 -4 11 -10z m425 6 c0 -3 -4 -8 -10 -11 -5 -3 -10 -1 -10 4 0 6 5 11 10
11 6 0 10 -2 10 -4z m-3035 -34 c-3 -3 -11 0 -18 7 -9 10 -8 11 6 5 10 -3 15
-9 12 -12z m595 -4 c0 -11 -12 -10 -30 2 -12 7 -10 9 8 7 12 0 22 -5 22 -9z
m255 2 c-3 -5 -12 -10 -18 -10 -7 0 -6 4 3 10 19 12 23 12 15 0z m-805 -10 c8
-5 11 -10 5 -10 -5 0 -17 5 -25 10 -8 5 -10 10 -5 10 6 0 17 -5 25 -10z m680
-26 c0 5 7 3 15 -4 12 -10 15 -10 15 0 0 9 4 9 17 -1 11 -10 14 -10 9 -1 -4 6
-3 12 3 12 5 0 13 -5 16 -10 4 -6 11 -8 16 -4 5 3 7 9 5 13 -3 3 4 7 15 7 14
0 19 -7 19 -29 0 -15 5 -38 11 -49 6 -11 7 -19 2 -17 -5 2 -44 17 -86 34 -61
23 -77 34 -77 50 0 17 2 17 10 5 5 -8 10 -11 10 -6z m3070 -18 c0 -3 -4 -8
-10 -11 -5 -3 -10 -1 -10 4 0 6 5 11 10 11 6 0 10 -2 10 -4z"/>
<path d="M3500 516 c0 -2 7 -7 16 -10 8 -3 12 -2 9 4 -6 10 -25 14 -25 6z"/>
<path d="M3530 486 c0 -2 7 -7 16 -10 8 -3 12 -2 9 4 -6 10 -25 14 -25 6z"/>
<path d="M2476 4265 c-3 -8 -1 -15 4 -15 6 0 10 7 10 15 0 8 -2 15 -4 15 -2 0
-6 -7 -10 -15z"/>
<path d="M1889 473 c-13 -15 -12 -15 9 -4 23 12 28 21 13 21 -5 0 -15 -7 -22
-17z"/>
<path d="M1620 460 c-9 -6 -10 -10 -3 -10 6 0 15 5 18 10 8 12 4 12 -15 0z"/>
<path d="M1895 450 c-3 -5 -1 -10 4 -10 6 0 11 5 11 10 0 6 -2 10 -4 10 -3 0
-8 -4 -11 -10z"/>
<path d="M2515 165 c-29 -28 -31 -51 -11 -100 13 -30 20 -35 49 -35 38 0 52
12 62 53 13 52 -15 107 -56 107 -11 0 -31 -11 -44 -25z"/>
<path d="M4860 38 l0 -38 65 0 c55 0 65 3 65 18 0 9 3 27 6 40 7 23 6 23 -65
20 l-71 -3 0 -37z"/>
</g>
</svg>
